<?xml version="1.0" encoding="UTF-8"?>
<svg xmlns="http://www.w3.org/2000/svg" width="1000" height="957" viewBox="0 0 1000 957" role="img" aria-labelledby="title desc">
  <title id="title">Repo Growth for MacRimi/repo-growth</title>
  <desc id="desc">Repository growth dashboard showing stars, forks, release downloads over time.</desc>
  <defs>
    <linearGradient id="background" x1="0" y1="0" x2="1" y2="1">
      <stop offset="0" stop-color="#fafafa"/><stop offset="1" stop-color="#f4f4f5"/>
    </linearGradient>
    <linearGradient id="fill-stars" x1="0" y1="0" x2="0" y2="1"><stop offset="0" stop-color="#8b5cf6" stop-opacity=".24"/><stop offset="1" stop-color="#8b5cf6" stop-opacity="0"/></linearGradient><linearGradient id="fill-forks" x1="0" y1="0" x2="0" y2="1"><stop offset="0" stop-color="#06b6d4" stop-opacity=".24"/><stop offset="1" stop-color="#06b6d4" stop-opacity="0"/></linearGradient><linearGradient id="fill-downloads" x1="0" y1="0" x2="0" y2="1"><stop offset="0" stop-color="#10b981" stop-opacity=".24"/><stop offset="1" stop-color="#10b981" stop-opacity="0"/></linearGradient>
    <filter id="shadow" x="-10%" y="-10%" width="120%" height="130%"><feDropShadow dx="0" dy="8" stdDeviation="14" flood-color="#18181b" flood-opacity=".08"/></filter>
    <style>
      :root { color-scheme: light dark; }
      .bg { fill: url(#background); }
      .surface { fill: #ffffff; stroke: #e4e4e7; }
      .panel { fill: #ffffff; stroke: #e4e4e7; }
      .primary { fill: #18181b; }
      .secondary { fill: #71717a; }
      .grid { stroke: #e4e4e7; }
      text { font-family: Inter, ui-sans-serif, system-ui, -apple-system, BlinkMacSystemFont, "Segoe UI", sans-serif; }
      @media (prefers-color-scheme: dark) {
        .bg { fill: #09090b; }
        .surface, .panel { fill: #111113; stroke: #27272a; }
        .primary { fill: #fafafa; }
        .secondary { fill: #a1a1aa; }
        .grid { stroke: #27272a; }
      }
    </style>
  </defs>
  <rect class="bg" width="1000" height="957" rx="28"/>
  <g transform="translate(42 38)">
    <rect x="0" y="0" width="916" height="881" rx="22" class="surface" filter="url(#shadow)"/>
    <text x="30" y="45" class="primary" font-size="26" font-weight="750" letter-spacing="-.5">Repo Growth</text>
    <text x="30" y="70" class="secondary" font-size="14">MacRimi/repo-growth · Jul 22, 2026 – Sep 23, 2026</text>
    <g transform="translate(740 25)"><rect width="146" height="30" rx="15" fill="#8b5cf6" fill-opacity=".12"/><circle cx="17" cy="15" r="4" fill="#8b5cf6"/><text x="30" y="20" fill="#8b5cf6" font-size="11" font-weight="700" letter-spacing="1">LOCAL HISTORY</text></g>
    <g transform="translate(30 92)">
    <rect width="272" height="86" rx="16" class="panel"/>
    <rect x="16" y="17" width="6" height="52" rx="3" fill="#8b5cf6"/>
    <text x="38" y="34" class="secondary" font-size="12" font-weight="650" letter-spacing=".3">STARS</text>
    <text x="38" y="64" class="primary" font-size="27" font-weight="760" letter-spacing="-.5">7</text>
    <text x="246" y="63" text-anchor="end" fill="#8b5cf6" font-size="11" font-weight="650">+7 tracked</text>
  </g><g transform="translate(322 92)">
    <rect width="272" height="86" rx="16" class="panel"/>
    <rect x="16" y="17" width="6" height="52" rx="3" fill="#06b6d4"/>
    <text x="38" y="34" class="secondary" font-size="12" font-weight="650" letter-spacing=".3">FORKS</text>
    <text x="38" y="64" class="primary" font-size="27" font-weight="760" letter-spacing="-.5">0</text>
    <text x="246" y="63" text-anchor="end" fill="#06b6d4" font-size="11" font-weight="650">No change yet</text>
  </g><g transform="translate(614 92)">
    <rect width="272" height="86" rx="16" class="panel"/>
    <rect x="16" y="17" width="6" height="52" rx="3" fill="#10b981"/>
    <text x="38" y="34" class="secondary" font-size="12" font-weight="650" letter-spacing=".3">RELEASE DOWNLOADS</text>
    <text x="38" y="64" class="primary" font-size="27" font-weight="760" letter-spacing="-.5">0</text>
    <text x="246" y="63" text-anchor="end" fill="#10b981" font-size="11" font-weight="650">No change yet</text>
  </g>
    <g transform="translate(30 197)">
    <rect width="856" height="201" rx="16" class="panel"/>
    <circle cx="20" cy="27" r="5" fill="#8b5cf6"/>
    <text x="34" y="31" class="primary" font-size="14" font-weight="700">Stars</text>
    <text x="20" y="62" class="primary" font-size="20" font-weight="750">7</text>
    <text x="20" y="83" class="secondary" font-size="11">range 0–7</text>
    <line x1="220" x2="836" y1="20" y2="20" class="grid" stroke-width="1" stroke-dasharray="3 6"/><text x="210" y="24" text-anchor="end" class="secondary" font-size="9">7</text><line x1="220" x2="836" y1="95" y2="95" class="grid" stroke-width="1" stroke-dasharray="3 6"/><text x="210" y="99" text-anchor="end" class="secondary" font-size="9">4</text><line x1="220" x2="836" y1="170" y2="170" class="grid" stroke-width="1" stroke-dasharray="3 6"/><text x="210" y="174" text-anchor="end" class="secondary" font-size="9">0</text>
    <path d="M220 170 L229.8 170 L239.6 170 L249.3 170 L259.1 170 L268.9 170 L278.7 170 L288.4 170 L298.2 170 L308 170 L317.8 170 L327.6 170 L337.3 170 L347.1 170 L356.9 170 L366.7 170 L376.4 148.6 L386.2 148.6 L396 148.6 L405.8 148.6 L415.6 148.6 L425.3 148.6 L435.1 148.6 L444.9 148.6 L454.7 148.6 L464.4 127.1 L474.2 127.1 L484 127.1 L493.8 127.1 L503.6 105.7 L513.3 105.7 L523.1 105.7 L532.9 105.7 L542.7 84.3 L552.4 84.3 L562.2 62.9 L572 62.9 L581.8 41.4 L591.6 41.4 L601.3 41.4 L611.1 41.4 L620.9 41.4 L630.7 41.4 L640.4 41.4 L650.2 41.4 L660 41.4 L669.8 41.4 L679.6 41.4 L689.3 20 L699.1 20 L708.9 20 L718.7 20 L728.4 20 L738.2 20 L748 20 L757.8 20 L767.6 20 L777.3 20 L787.1 20 L796.9 20 L806.7 20 L816.4 20 L826.2 20 L836 20 L836 170 L220 170 Z" fill="url(#fill-stars)"/>
    <path d="M220 170 L229.8 170 L239.6 170 L249.3 170 L259.1 170 L268.9 170 L278.7 170 L288.4 170 L298.2 170 L308 170 L317.8 170 L327.6 170 L337.3 170 L347.1 170 L356.9 170 L366.7 170 L376.4 148.6 L386.2 148.6 L396 148.6 L405.8 148.6 L415.6 148.6 L425.3 148.6 L435.1 148.6 L444.9 148.6 L454.7 148.6 L464.4 127.1 L474.2 127.1 L484 127.1 L493.8 127.1 L503.6 105.7 L513.3 105.7 L523.1 105.7 L532.9 105.7 L542.7 84.3 L552.4 84.3 L562.2 62.9 L572 62.9 L581.8 41.4 L591.6 41.4 L601.3 41.4 L611.1 41.4 L620.9 41.4 L630.7 41.4 L640.4 41.4 L650.2 41.4 L660 41.4 L669.8 41.4 L679.6 41.4 L689.3 20 L699.1 20 L708.9 20 L718.7 20 L728.4 20 L738.2 20 L748 20 L757.8 20 L767.6 20 L777.3 20 L787.1 20 L796.9 20 L806.7 20 L816.4 20 L826.2 20 L836 20" fill="none" stroke="#8b5cf6" stroke-width="3" stroke-linecap="round" stroke-linejoin="round"/>
    <circle cx="836" cy="20" r="5" fill="#8b5cf6" stroke="#fff" stroke-width="2"/>
    <text x="220" y="194" text-anchor="start" class="secondary" font-size="9">Jul 22, 2026</text><text x="528" y="194" text-anchor="middle" class="secondary" font-size="9">Aug 22, 2026</text><text x="836" y="194" text-anchor="end" class="secondary" font-size="9">Sep 23, 2026</text>
  </g><g transform="translate(30 414)">
    <rect width="856" height="201" rx="16" class="panel"/>
    <circle cx="20" cy="27" r="5" fill="#06b6d4"/>
    <text x="34" y="31" class="primary" font-size="14" font-weight="700">Forks</text>
    <text x="20" y="62" class="primary" font-size="20" font-weight="750">0</text>
    <text x="20" y="83" class="secondary" font-size="11">range 0–0</text>
    <line x1="220" x2="836" y1="20" y2="20" class="grid" stroke-width="1" stroke-dasharray="3 6"/><text x="210" y="24" text-anchor="end" class="secondary" font-size="9">1</text><line x1="220" x2="836" y1="95" y2="95" class="grid" stroke-width="1" stroke-dasharray="3 6"/><text x="210" y="99" text-anchor="end" class="secondary" font-size="9">1</text><line x1="220" x2="836" y1="170" y2="170" class="grid" stroke-width="1" stroke-dasharray="3 6"/><text x="210" y="174" text-anchor="end" class="secondary" font-size="9">0</text>
    <path d="M220 170 L229.8 170 L239.6 170 L249.3 170 L259.1 170 L268.9 170 L278.7 170 L288.4 170 L298.2 170 L308 170 L317.8 170 L327.6 170 L337.3 170 L347.1 170 L356.9 170 L366.7 170 L376.4 170 L386.2 170 L396 170 L405.8 170 L415.6 170 L425.3 170 L435.1 170 L444.9 170 L454.7 170 L464.4 170 L474.2 170 L484 170 L493.8 170 L503.6 170 L513.3 170 L523.1 170 L532.9 170 L542.7 170 L552.4 170 L562.2 170 L572 170 L581.8 170 L591.6 170 L601.3 170 L611.1 170 L620.9 170 L630.7 170 L640.4 170 L650.2 170 L660 170 L669.8 170 L679.6 170 L689.3 170 L699.1 170 L708.9 170 L718.7 170 L728.4 170 L738.2 170 L748 170 L757.8 170 L767.6 170 L777.3 170 L787.1 170 L796.9 170 L806.7 170 L816.4 170 L826.2 170 L836 170 L836 170 L220 170 Z" fill="url(#fill-forks)"/>
    <path d="M220 170 L229.8 170 L239.6 170 L249.3 170 L259.1 170 L268.9 170 L278.7 170 L288.4 170 L298.2 170 L308 170 L317.8 170 L327.6 170 L337.3 170 L347.1 170 L356.9 170 L366.7 170 L376.4 170 L386.2 170 L396 170 L405.8 170 L415.6 170 L425.3 170 L435.1 170 L444.9 170 L454.7 170 L464.4 170 L474.2 170 L484 170 L493.8 170 L503.6 170 L513.3 170 L523.1 170 L532.9 170 L542.7 170 L552.4 170 L562.2 170 L572 170 L581.8 170 L591.6 170 L601.3 170 L611.1 170 L620.9 170 L630.7 170 L640.4 170 L650.2 170 L660 170 L669.8 170 L679.6 170 L689.3 170 L699.1 170 L708.9 170 L718.7 170 L728.4 170 L738.2 170 L748 170 L757.8 170 L767.6 170 L777.3 170 L787.1 170 L796.9 170 L806.7 170 L816.4 170 L826.2 170 L836 170" fill="none" stroke="#06b6d4" stroke-width="3" stroke-linecap="round" stroke-linejoin="round"/>
    <circle cx="836" cy="170" r="5" fill="#06b6d4" stroke="#fff" stroke-width="2"/>
    <text x="220" y="194" text-anchor="start" class="secondary" font-size="9">Jul 22, 2026</text><text x="528" y="194" text-anchor="middle" class="secondary" font-size="9">Aug 22, 2026</text><text x="836" y="194" text-anchor="end" class="secondary" font-size="9">Sep 23, 2026</text>
  </g><g transform="translate(30 631)">
    <rect width="856" height="201" rx="16" class="panel"/>
    <circle cx="20" cy="27" r="5" fill="#10b981"/>
    <text x="34" y="31" class="primary" font-size="14" font-weight="700">Release downloads</text>
    <text x="20" y="62" class="primary" font-size="20" font-weight="750">0</text>
    <text x="20" y="83" class="secondary" font-size="11">range 0–0</text>
    <line x1="220" x2="836" y1="20" y2="20" class="grid" stroke-width="1" stroke-dasharray="3 6"/><text x="210" y="24" text-anchor="end" class="secondary" font-size="9">1</text><line x1="220" x2="836" y1="95" y2="95" class="grid" stroke-width="1" stroke-dasharray="3 6"/><text x="210" y="99" text-anchor="end" class="secondary" font-size="9">1</text><line x1="220" x2="836" y1="170" y2="170" class="grid" stroke-width="1" stroke-dasharray="3 6"/><text x="210" y="174" text-anchor="end" class="secondary" font-size="9">0</text>
    <path d="M220 170 L229.8 170 L239.6 170 L249.3 170 L259.1 170 L268.9 170 L278.7 170 L288.4 170 L298.2 170 L308 170 L317.8 170 L327.6 170 L337.3 170 L347.1 170 L356.9 170 L366.7 170 L376.4 170 L386.2 170 L396 170 L405.8 170 L415.6 170 L425.3 170 L435.1 170 L444.9 170 L454.7 170 L464.4 170 L474.2 170 L484 170 L493.8 170 L503.6 170 L513.3 170 L523.1 170 L532.9 170 L542.7 170 L552.4 170 L562.2 170 L572 170 L581.8 170 L591.6 170 L601.3 170 L611.1 170 L620.9 170 L630.7 170 L640.4 170 L650.2 170 L660 170 L669.8 170 L679.6 170 L689.3 170 L699.1 170 L708.9 170 L718.7 170 L728.4 170 L738.2 170 L748 170 L757.8 170 L767.6 170 L777.3 170 L787.1 170 L796.9 170 L806.7 170 L816.4 170 L826.2 170 L836 170 L836 170 L220 170 Z" fill="url(#fill-downloads)"/>
    <path d="M220 170 L229.8 170 L239.6 170 L249.3 170 L259.1 170 L268.9 170 L278.7 170 L288.4 170 L298.2 170 L308 170 L317.8 170 L327.6 170 L337.3 170 L347.1 170 L356.9 170 L366.7 170 L376.4 170 L386.2 170 L396 170 L405.8 170 L415.6 170 L425.3 170 L435.1 170 L444.9 170 L454.7 170 L464.4 170 L474.2 170 L484 170 L493.8 170 L503.6 170 L513.3 170 L523.1 170 L532.9 170 L542.7 170 L552.4 170 L562.2 170 L572 170 L581.8 170 L591.6 170 L601.3 170 L611.1 170 L620.9 170 L630.7 170 L640.4 170 L650.2 170 L660 170 L669.8 170 L679.6 170 L689.3 170 L699.1 170 L708.9 170 L718.7 170 L728.4 170 L738.2 170 L748 170 L757.8 170 L767.6 170 L777.3 170 L787.1 170 L796.9 170 L806.7 170 L816.4 170 L826.2 170 L836 170" fill="none" stroke="#10b981" stroke-width="3" stroke-linecap="round" stroke-linejoin="round"/>
    <circle cx="836" cy="170" r="5" fill="#10b981" stroke="#fff" stroke-width="2"/>
    <text x="220" y="194" text-anchor="start" class="secondary" font-size="9">Jul 22, 2026</text><text x="528" y="194" text-anchor="middle" class="secondary" font-size="9">Aug 22, 2026</text><text x="836" y="194" text-anchor="end" class="secondary" font-size="9">Sep 23, 2026</text>
  </g>
    <text x="30" y="862" class="secondary" font-size="11">Updated Sep 23, 2026</text>
    <a href="https://github.com/MacRimi/repo-growth" target="_blank" aria-label="Open the Repo Growth project">
      <text x="886" y="862" fill="#8b5cf6" text-anchor="end" font-size="13" font-weight="700">Generated by Repo Growth ↗</text>
    </a>
  </g>
</svg>
